<?xml version="1.0" encoding="UTF-8"?>
<svg width="115px" height="123px" viewBox="0 0 115 123" version="1.1" xmlns="http://www.w3.org/2000/svg" xmlns:xlink="http://www.w3.org/1999/xlink">
    <!-- Generator: Sketch 43.1 (39012) - http://www.bohemiancoding.com/sketch -->
    <title>buy</title>
    <desc>Created with Sketch.</desc>
    <defs></defs>
    <g id="Page-1" stroke="none" stroke-width="1" fill="none" fill-rule="evenodd">
        <g id="buy" transform="translate(3.000000, 2.000000)">
            <path d="M71.38,72.482 C68.667,70.234 64.645,70.61 62.396,73.324 L57.219,79.571 C58.112,77.109 57.43,74.249 55.298,72.483 C53.213,70.755 50.357,70.583 48.124,71.825 C49.902,69.143 49.408,65.494 46.874,63.395 C44.16,61.146 40.138,61.522 37.889,64.236 L9.7,98.246 C7.451,100.959 7.828,104.981 10.541,107.23 C12.626,108.958 15.482,109.13 17.715,107.889 C15.937,110.571 16.43,114.219 18.965,116.319 C21.678,118.568 25.7,118.191 27.949,115.478 L33.126,109.231 C32.233,111.692 32.915,114.552 35.047,116.318 C37.761,118.567 41.783,118.19 44.032,115.477 L72.221,81.465 C74.47,78.754 74.094,74.731 71.38,72.482 Z" id="Shape" stroke="#4F3625" stroke-width="6" fill="#EBBC96" fill-rule="nonzero" stroke-linecap="round" stroke-linejoin="round"></path>
            <g id="Group" transform="translate(0.000000, 45.000000)">
                <path d="M91,55 C91,57.2 89.2,59 87,59 L4,59 C1.8,59 0,57.2 0,55 L0,4 C0,1.8 1.8,0 4,0 L87,0 C89.2,0 91,1.8 91,4 L91,55 Z" id="Shape" fill="#B2EDA6" fill-rule="nonzero"></path>
                <path d="M91,55 C91,57.2 89.2,59 87,59 L4,59 C1.8,59 0,57.2 0,55 L0,4 C0,1.8 1.8,0 4,0 L87,0 C89.2,0 91,1.8 91,4 L91,55 Z" id="Shape" stroke="#3C663E" stroke-width="6" stroke-linecap="round" stroke-linejoin="round"></path>
            </g>
            <rect id="Rectangle-path" fill="#3C663E" fill-rule="nonzero" x="0.334" y="54.072" width="91.294" height="11.78"></rect>
            <rect id="Rectangle-path" stroke="#3C663E" stroke-width="4" fill="#E7FFE1" fill-rule="nonzero" stroke-linecap="round" stroke-linejoin="round" x="43.527" y="70.821" width="39.266" height="9.817"></rect>
            <path d="M64.474,40.299 C64.474,40.299 58.898,43.79 51.363,46.364 C44.593,48.678 36.438,50.131 36.438,50.131 C36.438,50.131 36.153,61.003 35.053,66.201 C33.958,71.399 24.182,74.022 21.177,66.583 C18.174,59.143 17.41,47.603 19.508,40.832 C21.607,34.06 28.651,29.276 34.277,26.224 C36.775,24.869 38.58,24.104 41.278,23.29 C41.278,23.29 62.425,2.723 62.828,2.213 C66.89,-2.911 80.573,1.167 93.386,11.323 C106.2,21.479 113.297,33.87 109.235,38.995 C108.967,39.333 98.189,47.264 93.016,53.79" id="Shape" fill="#EBBC96" fill-rule="nonzero"></path>
            <path d="M64.474,40.299 C64.474,40.299 58.898,43.79 51.363,46.364 C44.593,48.678 36.438,50.131 36.438,50.131 C36.438,50.131 36.153,61.003 35.053,66.201 C33.958,71.399 24.182,74.022 21.177,66.583 C18.174,59.143 17.41,47.603 19.508,40.832 C21.607,34.06 28.651,29.276 34.277,26.224 C36.775,24.869 38.58,24.104 41.278,23.29 C41.278,23.29 62.425,2.723 62.828,2.213 C66.89,-2.911 80.573,1.167 93.386,11.323 C106.2,21.479 113.297,33.87 109.235,38.995 C108.967,39.333 98.189,47.264 93.016,53.79" id="Shape" fill="#EBBC96" fill-rule="nonzero"></path>
            <path d="M93.386,11.323 C80.574,1.167 66.891,-2.911 62.829,2.213 C62.617,2.48 54.505,6.925 49.701,12.868 C52.359,13.025 55.017,13.206 57.685,13.293 C62.817,13.459 67.552,13.316 72.391,15.32 C80.274,18.586 86.069,25.511 90.733,32.431 C93.917,37.154 96.853,42.779 97.169,48.551 C101.57,42.998 109.034,39.25 109.235,38.995 C113.298,33.869 106.2,21.479 93.386,11.323 Z" id="Shape" fill="#FFFFFF" fill-rule="nonzero"></path>
            <path d="M28.93,74.053 C28.93,74.053 37.624,73.636 43.143,65.743 C46.738,60.601 46.319,56.856 46.319,56.856 C46.319,56.856 51.558,56.519 59.41,52.309 C66.265,48.634 69.611,41.681 69.611,41.681 L59.088,40.686 L36.68,48.334 L35.251,64.927 L28.93,74.053 Z" id="Shape" fill="#1E3A1E" fill-rule="nonzero" opacity="0.2"></path>
            <path d="M82.961,18.722 C72.095,9.817 55.344,9.991 55.344,9.991 L44.937,23.197 L44.753,23.484 L44.964,23.612 C55.124,21.165 66.245,21.794 75.685,27.84 C84.247,33.326 90.132,40.788 92.791,49.625 C95.403,46.47 98.766,42.589 98.766,42.589 C98.766,42.589 96.295,29.65 82.961,18.722 Z" id="Shape" fill="#D6D0CC" fill-rule="nonzero"></path>
            <path d="M43.693,23.926 C54.189,21.113 65.851,21.542 75.686,27.84 C85.765,34.298 92.152,43.486 93.911,54.444" id="Shape" stroke="#4F3625" stroke-width="4" stroke-linecap="round" stroke-linejoin="round"></path>
            <path d="M64.474,40.299 C64.474,40.299 58.898,43.79 51.363,46.364 C44.593,48.678 36.438,50.131 36.438,50.131 C36.438,50.131 36.153,61.003 35.053,66.201 C33.958,71.399 24.182,74.022 21.177,66.583 C18.174,59.143 17.41,47.603 19.508,40.832 C21.607,34.06 28.651,29.276 34.277,26.224 C36.775,24.869 38.58,24.104 41.278,23.29 C41.278,23.29 60.541,4.607 60.944,4.098 C65.006,-1.026 78.689,3.052 91.502,13.208 C104.316,23.364 111.413,35.754 107.351,40.879 C107.083,41.217 98.189,47.264 93.016,53.79" id="Shape" stroke="#4F3625" stroke-width="6" stroke-linecap="round" stroke-linejoin="round"></path>
            <path d="M21.309,58.44 C21.309,58.44 26.032,58.565 27.337,61.795" id="Shape" stroke="#4F3625" stroke-width="4" stroke-linecap="round" stroke-linejoin="round"></path>
            <circle id="Oval" stroke="#3C663E" stroke-width="4" fill="#E7FFE1" fill-rule="nonzero" stroke-linecap="round" stroke-linejoin="round" cx="17.022" cy="87.509" r="7.853"></circle>
            <circle id="Oval" stroke="#3C663E" stroke-width="4" fill="#E7FFE1" fill-rule="nonzero" stroke-linecap="round" stroke-linejoin="round" cx="27.82" cy="87.509" r="7.853"></circle>
            <g id="Group" transform="translate(68.000000, 45.000000)">
                <path d="M0.068,0.298 L18.646,0.298 C20.846,0.298 22.646,2.098 22.646,4.298 L22.646,10.054" id="Shape" fill="#B2EDA6" fill-rule="nonzero"></path>
                <path d="M0.068,0.298 L18.646,0.298 C20.846,0.298 22.646,2.098 22.646,4.298 L22.646,10.054" id="Shape" stroke="#3C663E" stroke-width="6" stroke-linecap="round" stroke-linejoin="round"></path>
            </g>
        </g>
    </g>
</svg>