<?xml version="1.0" encoding="UTF-8"?>
<svg width="106px" height="105px" viewBox="0 0 106 105" version="1.1" xmlns="http://www.w3.org/2000/svg" xmlns:xlink="http://www.w3.org/1999/xlink">
    <!-- Generator: Sketch 43.1 (39012) - http://www.bohemiancoding.com/sketch -->
    <title>notebook</title>
    <desc>Created with Sketch.</desc>
    <defs></defs>
    <g id="Page-1" stroke="none" stroke-width="1" fill="none" fill-rule="evenodd">
        <g id="notebook" transform="translate(1.000000, 3.000000)">
            <g id="Group" transform="translate(10.000000, 0.000000)">
                <path d="M70.895,11.854 L70.895,11.354 C70.895,11.079 70.542,9.089 70.111,6.932 L69.68,4.777 C69.249,2.62 67.096,0.855 64.896,0.855 L6.896,0.855 C4.696,0.855 2.543,2.62 2.112,4.777 L1.681,6.932 C1.25,9.089 0.897,11.079 0.897,11.354 L0.897,11.854" id="Shape" fill="#FFFFFF" fill-rule="nonzero"></path>
                <path d="M70.895,11.854 L70.895,11.354 C70.895,11.079 70.542,9.089 70.111,6.932 L69.68,4.777 C69.249,2.62 67.096,0.855 64.896,0.855 L6.896,0.855 C4.696,0.855 2.543,2.62 2.112,4.777 L1.681,6.932 C1.25,9.089 0.897,11.079 0.897,11.354 L0.897,11.854" id="Shape" stroke="#324654" stroke-width="6" stroke-linecap="round" stroke-linejoin="round"></path>
            </g>
            <g id="Group" transform="translate(2.000000, 11.000000)">
                <path d="M8.895,0.854 L8.895,16.854 C8.895,19.054 7.095,20.854 4.895,20.854 L4.895,20.854 C2.695,20.854 0.895,22.204 0.895,23.854 C0.895,25.504 2.695,26.854 4.895,26.854 L4.895,26.854 C7.095,26.854 8.895,28.654 8.895,30.854 L8.895,36.854 C8.895,39.054 7.095,40.854 4.895,40.854 L4.895,40.854 C2.695,40.854 0.895,42.204 0.895,43.854 C0.895,45.504 2.695,46.854 4.895,46.854 L4.895,46.854 C7.095,46.854 8.895,48.654 8.895,50.854 L8.895,56.854 C8.895,59.054 7.095,60.854 4.895,60.854 L4.895,60.854 C2.695,60.854 0.895,62.204 0.895,63.854 C0.895,65.504 2.695,66.854 4.895,66.854 L4.895,66.854 C7.095,66.854 8.895,68.654 8.895,70.854 L8.895,83.854 C8.895,86.054 10.695,87.854 12.895,87.854 L74.895,87.854 C77.095,87.854 78.895,86.054 78.895,83.854 L78.895,0.854" id="Shape" fill="#B9E3ED" fill-rule="nonzero"></path>
                <path d="M8.895,0.854 L8.895,16.854 C8.895,19.054 7.095,20.854 4.895,20.854 L4.895,20.854 C2.695,20.854 0.895,22.204 0.895,23.854 C0.895,25.504 2.695,26.854 4.895,26.854 L4.895,26.854 C7.095,26.854 8.895,28.654 8.895,30.854 L8.895,36.854 C8.895,39.054 7.095,40.854 4.895,40.854 L4.895,40.854 C2.695,40.854 0.895,42.204 0.895,43.854 C0.895,45.504 2.695,46.854 4.895,46.854 L4.895,46.854 C7.095,46.854 8.895,48.654 8.895,50.854 L8.895,56.854 C8.895,59.054 7.095,60.854 4.895,60.854 L4.895,60.854 C2.695,60.854 0.895,62.204 0.895,63.854 C0.895,65.504 2.695,66.854 4.895,66.854 L4.895,66.854 C7.095,66.854 8.895,68.654 8.895,70.854 L8.895,83.854 C8.895,86.054 10.695,87.854 12.895,87.854 L74.895,87.854 C77.095,87.854 78.895,86.054 78.895,83.854 L78.895,0.854" id="Shape" stroke="#324654" stroke-width="6" stroke-linecap="round" stroke-linejoin="round"></path>
            </g>
            <path d="M101.087,35.415 L95.462,31.247 C94.575,30.59 93.322,30.776 92.664,31.664 L64.997,69.004 L63.745,79.933 L73.836,75.553 L101.503,38.212 C102.16,37.325 101.973,36.072 101.087,35.415 Z" id="Shape" stroke="#324654" stroke-width="6" fill="#B9E3ED" fill-rule="nonzero" stroke-linecap="round" stroke-linejoin="round"></path>
            <rect id="Rectangle-path" fill="#324654" fill-rule="nonzero" transform="translate(71.140315, 69.110726) rotate(36.534142) translate(-71.140315, -69.110726) " x="66.1403294" y="68.0127289" width="9.9999717" height="2.19599379"></rect>
            <g id="Group" transform="translate(33.000000, 21.000000)" fill-rule="nonzero">
                <rect id="Rectangle-path" fill="#FFFFFF" x="2.896" y="2.854" width="30" height="17"></rect>
                <path d="M30.895,4.854 L30.895,17.854 L4.895,17.854 L4.895,4.854 L30.895,4.854 L30.895,4.854 Z M34.895,0.854 L0.895,0.854 L0.895,21.854 L34.895,21.854 L34.895,0.854 L34.895,0.854 Z" id="Shape" fill="#324654"></path>
            </g>
            <g id="Group" transform="translate(0.000000, 27.000000)" fill-rule="nonzero">
                <path d="M8.896,12.854 C5.587,12.854 2.896,10.611 2.896,7.854 C2.896,5.097 5.587,2.854 8.896,2.854 L17.896,2.854 C21.205,2.854 23.896,5.097 23.896,7.854 C23.896,10.611 21.205,12.854 17.896,12.854 L8.896,12.854 Z" id="Shape" fill="#FFFFFF"></path>
                <path d="M17.895,4.854 C20.095,4.854 21.895,6.204 21.895,7.854 C21.895,9.504 20.095,10.854 17.895,10.854 L8.895,10.854 C6.695,10.854 4.895,9.504 4.895,7.854 C4.895,6.204 6.695,4.854 8.895,4.854 L17.895,4.854 L17.895,4.854 Z M17.895,0.854 L8.895,0.854 C4.409,0.854 0.895,3.929 0.895,7.854 C0.895,11.779 4.409,14.854 8.895,14.854 L17.895,14.854 C22.381,14.854 25.895,11.779 25.895,7.854 C25.895,3.929 22.381,0.854 17.895,0.854 L17.895,0.854 Z" id="Shape" fill="#324654"></path>
            </g>
            <g id="Group" transform="translate(0.000000, 47.000000)" fill-rule="nonzero">
                <path d="M8.896,12.854 C5.587,12.854 2.896,10.611 2.896,7.854 C2.896,5.097 5.587,2.854 8.896,2.854 L17.896,2.854 C21.205,2.854 23.896,5.097 23.896,7.854 C23.896,10.611 21.205,12.854 17.896,12.854 L8.896,12.854 Z" id="Shape" fill="#FFFFFF"></path>
                <path d="M17.895,4.854 C20.095,4.854 21.895,6.204 21.895,7.854 C21.895,9.504 20.095,10.854 17.895,10.854 L8.895,10.854 C6.695,10.854 4.895,9.504 4.895,7.854 C4.895,6.204 6.695,4.854 8.895,4.854 L17.895,4.854 L17.895,4.854 Z M17.895,0.854 L8.895,0.854 C4.409,0.854 0.895,3.929 0.895,7.854 C0.895,11.779 4.409,14.854 8.895,14.854 L17.895,14.854 C22.381,14.854 25.895,11.779 25.895,7.854 C25.895,3.929 22.381,0.854 17.895,0.854 L17.895,0.854 Z" id="Shape" fill="#324654"></path>
            </g>
            <g id="Group" transform="translate(0.000000, 67.000000)" fill-rule="nonzero">
                <path d="M8.896,12.854 C5.587,12.854 2.896,10.611 2.896,7.854 C2.896,5.097 5.587,2.854 8.896,2.854 L17.896,2.854 C21.205,2.854 23.896,5.097 23.896,7.854 C23.896,10.611 21.205,12.854 17.896,12.854 L8.896,12.854 Z" id="Shape" fill="#FFFFFF"></path>
                <path d="M17.895,4.854 C20.095,4.854 21.895,6.204 21.895,7.854 C21.895,9.504 20.095,10.854 17.895,10.854 L8.895,10.854 C6.695,10.854 4.895,9.504 4.895,7.854 C4.895,6.204 6.695,4.854 8.895,4.854 L17.895,4.854 L17.895,4.854 Z M17.895,0.854 L8.895,0.854 C4.409,0.854 0.895,3.929 0.895,7.854 C0.895,11.779 4.409,14.854 8.895,14.854 L17.895,14.854 C22.381,14.854 25.895,11.779 25.895,7.854 C25.895,3.929 22.381,0.854 17.895,0.854 L17.895,0.854 Z" id="Shape" fill="#324654"></path>
            </g>
            <path d="M33.895,48.854 L60.895,48.854" id="Shape" stroke="#324654" stroke-width="4" fill="#FFFFFF" fill-rule="nonzero" stroke-linejoin="round"></path>
            <path d="M33.895,55.854 L51.895,55.854" id="Shape" stroke="#324654" stroke-width="4" fill="#FFFFFF" fill-rule="nonzero" stroke-linejoin="round"></path>
            <path d="M11.895,13.854 L80.895,13.854" id="Shape" stroke="#324654" stroke-width="4" fill="#FFFFFF" fill-rule="nonzero" stroke-linecap="round" stroke-linejoin="round"></path>
            <path d="M11.895,7.854 L80.895,7.854" id="Shape" stroke="#324654" stroke-width="4" fill="#FFFFFF" fill-rule="nonzero" stroke-linecap="round" stroke-linejoin="round"></path>
        </g>
    </g>
</svg>